<?xml version="1.0" encoding="UTF-8"?>
<svg width="680" height="900" viewBox="0 0 680 900" xmlns="http://www.w3.org/2000/svg">
<title>SoloWandr — Official Logo Suite</title>
<desc>
  SoloWandr final logo suite.
  Tagline: Travel Solo and Know
  Primary brand color: Terracotta #C4622D
  All variants: light, dark, terracotta, stacked, icon-only
  Use this file to export PNG icons at any size.
</desc>

<!-- ═══════════════════════════════════════════════ -->
<!--  PRIMARY WORDMARK — light background           -->
<!--  Recommended for: website header, letterhead,  -->
<!--  email signatures, light-mode app header       -->
<!-- ═══════════════════════════════════════════════ -->
<g id="wordmark-light">
  <rect x="40" y="42" width="600" height="130" rx="18" fill="#FBF8F2" stroke="#E8D5B8" stroke-width="1"/>
  <!-- Icon mark -->
  <rect x="68" y="67" width="80" height="80" rx="19" fill="#C4622D"/>
  <rect x="88" y="89" width="40" height="34" rx="6" fill="#FBF8F2"/>
  <path d="M97 89 Q97 78 108 78 Q119 78 119 89" fill="none" stroke="#FBF8F2" stroke-width="4" stroke-linecap="round"/>
  <rect x="88" y="104" width="40" height="5" fill="#C4622D"/>
  <rect x="97" y="100" width="7" height="12" rx="2.5" fill="#C4622D"/>
  <circle cx="108" cy="106.5" r="2.8" fill="#FBF8F2"/>
  <rect x="93" y="122" width="5" height="4" rx="2" fill="#D4794A"/>
  <rect x="118" y="122" width="5" height="4" rx="2" fill="#D4794A"/>
  <!-- Wordmark -->
  <text x="168" y="107" font-family="Georgia, 'Times New Roman', serif" font-size="46" font-weight="700" fill="#2C1F14" letter-spacing="-1.5">Solo<tspan fill="#C4622D">Wandr</tspan></text>
  <!-- Tagline -->
  <text x="171" y="133" font-family="Georgia, 'Times New Roman', serif" font-size="16" font-style="italic" fill="#7A6050" letter-spacing="0.5">Travel Solo and Know</text>
</g>

<!-- ═══════════════════════════════════════════════ -->
<!--  PRIMARY WORDMARK — dark background            -->
<!--  Recommended for: dark-mode, print on dark     -->
<!--  paper, promotional banners                    -->
<!-- ═══════════════════════════════════════════════ -->
<g id="wordmark-dark">
  <rect x="40" y="236" width="600" height="130" rx="18" fill="#2C1F14"/>
  <rect x="68" y="261" width="80" height="80" rx="19" fill="#C4622D"/>
  <rect x="88" y="283" width="40" height="34" rx="6" fill="#FBF8F2"/>
  <path d="M97 283 Q97 272 108 272 Q119 272 119 283" fill="none" stroke="#FBF8F2" stroke-width="4" stroke-linecap="round"/>
  <rect x="88" y="298" width="40" height="5" fill="#C4622D"/>
  <rect x="97" y="294" width="7" height="12" rx="2.5" fill="#C4622D"/>
  <circle cx="108" cy="300.5" r="2.8" fill="#FBF8F2"/>
  <rect x="93" y="316" width="5" height="4" rx="2" fill="#D4794A"/>
  <rect x="118" y="316" width="5" height="4" rx="2" fill="#D4794A"/>
  <text x="168" y="301" font-family="Georgia, 'Times New Roman', serif" font-size="46" font-weight="700" fill="#FBF8F2" letter-spacing="-1.5">Solo<tspan fill="#D4794A">Wandr</tspan></text>
  <text x="171" y="327" font-family="Georgia, 'Times New Roman', serif" font-size="16" font-style="italic" fill="#B0A090" letter-spacing="0.5">Travel Solo and Know</text>
</g>

<!-- ═══════════════════════════════════════════════ -->
<!--  STACKED LOCKUP — light                        -->
<!--  Recommended for: app store listing, social    -->
<!--  media profile picture, square formats         -->
<!-- ═══════════════════════════════════════════════ -->
<g id="stacked-light">
  <rect x="40" y="430" width="185" height="240" rx="22" fill="#FBF8F2" stroke="#E8D5B8" stroke-width="1"/>
  <rect x="93" y="454" width="80" height="80" rx="19" fill="#C4622D"/>
  <rect x="113" y="474" width="40" height="34" rx="6" fill="#FBF8F2"/>
  <path d="M122 474 Q122 463 133 463 Q144 463 144 474" fill="none" stroke="#FBF8F2" stroke-width="4" stroke-linecap="round"/>
  <rect x="113" y="489" width="40" height="5" fill="#C4622D"/>
  <rect x="122" y="485" width="7" height="12" rx="2.5" fill="#C4622D"/>
  <circle cx="133" cy="491.5" r="2.8" fill="#FBF8F2"/>
  <rect x="118" y="507" width="5" height="4" rx="2" fill="#D4794A"/>
  <rect x="143" y="507" width="5" height="4" rx="2" fill="#D4794A"/>
  <text x="133" y="558" text-anchor="middle" font-family="Georgia, 'Times New Roman', serif" font-size="26" font-weight="700" fill="#2C1F14" letter-spacing="-0.5">Solo<tspan fill="#C4622D">Wandr</tspan></text>
  <text x="133" y="580" text-anchor="middle" font-family="Georgia, 'Times New Roman', serif" font-size="12" font-style="italic" fill="#7A6050">Travel Solo and Know</text>
  <text x="133" y="598" text-anchor="middle" font-family="Arial, Helvetica, sans-serif" font-size="10" fill="#B0A090" letter-spacing="0.5">solowandr.app</text>
</g>

<!-- ═══════════════════════════════════════════════ -->
<!--  STACKED LOCKUP — dark                         -->
<!-- ═══════════════════════════════════════════════ -->
<g id="stacked-dark">
  <rect x="248" y="430" width="185" height="240" rx="22" fill="#2C1F14"/>
  <rect x="301" y="454" width="80" height="80" rx="19" fill="#C4622D"/>
  <rect x="321" y="474" width="40" height="34" rx="6" fill="#FBF8F2"/>
  <path d="M330 474 Q330 463 341 463 Q352 463 352 474" fill="none" stroke="#FBF8F2" stroke-width="4" stroke-linecap="round"/>
  <rect x="321" y="489" width="40" height="5" fill="#C4622D"/>
  <rect x="330" y="485" width="7" height="12" rx="2.5" fill="#C4622D"/>
  <circle cx="341" cy="491.5" r="2.8" fill="#FBF8F2"/>
  <rect x="326" y="507" width="5" height="4" rx="2" fill="#D4794A"/>
  <rect x="351" y="507" width="5" height="4" rx="2" fill="#D4794A"/>
  <text x="341" y="558" text-anchor="middle" font-family="Georgia, 'Times New Roman', serif" font-size="26" font-weight="700" fill="#FBF8F2" letter-spacing="-0.5">Solo<tspan fill="#D4794A">Wandr</tspan></text>
  <text x="341" y="580" text-anchor="middle" font-family="Georgia, 'Times New Roman', serif" font-size="12" font-style="italic" fill="#B0A090">Travel Solo and Know</text>
  <text x="341" y="598" text-anchor="middle" font-family="Arial, Helvetica, sans-serif" font-size="10" fill="#7A6050" letter-spacing="0.5">solowandr.app</text>
</g>

<!-- ═══════════════════════════════════════════════ -->
<!--  STACKED LOCKUP — terracotta                   -->
<!--  Recommended for: social media cover photos,   -->
<!--  Instagram profile, marketing materials        -->
<!-- ═══════════════════════════════════════════════ -->
<g id="stacked-terra">
  <rect x="456" y="430" width="185" height="240" rx="22" fill="#C4622D"/>
  <rect x="509" y="454" width="80" height="80" rx="19" fill="#FBF8F2"/>
  <rect x="529" y="474" width="40" height="34" rx="6" fill="#C4622D"/>
  <path d="M538 474 Q538 463 549 463 Q560 463 560 474" fill="none" stroke="#C4622D" stroke-width="4" stroke-linecap="round"/>
  <rect x="529" y="489" width="40" height="5" fill="#FBF8F2"/>
  <rect x="538" y="485" width="7" height="12" rx="2.5" fill="#FBF8F2"/>
  <circle cx="549" cy="491.5" r="2.8" fill="#C4622D"/>
  <rect x="534" y="507" width="5" height="4" rx="2" fill="#B85228"/>
  <rect x="559" y="507" width="5" height="4" rx="2" fill="#B85228"/>
  <text x="549" y="558" text-anchor="middle" font-family="Georgia, 'Times New Roman', serif" font-size="26" font-weight="700" fill="#FBF8F2" letter-spacing="-0.5">SoloWandr</text>
  <text x="549" y="580" text-anchor="middle" font-family="Georgia, 'Times New Roman', serif" font-size="12" font-style="italic" fill="rgba(255,255,255,0.85)">Travel Solo and Know</text>
  <text x="549" y="598" text-anchor="middle" font-family="Arial, Helvetica, sans-serif" font-size="10" fill="rgba(255,255,255,0.55)" letter-spacing="0.5">solowandr.app</text>
</g>

<!-- ═══════════════════════════════════════════════ -->
<!--  ICON MARK — 96px (primary PWA / app icon)     -->
<!--  To export at 512px: open in browser, save as  -->
<!--  SVG, then use Squoosh or ImageMagick to       -->
<!--  export PNG at 512×512, 192×192, 96×96, 72×72  -->
<!-- ═══════════════════════════════════════════════ -->
<g id="icon-96-terra">
  <rect x="40" y="696" width="96" height="96" rx="22" fill="#C4622D"/>
  <rect x="60" y="718" width="56" height="46" rx="8" fill="#FBF8F2"/>
  <path d="M71 718 Q71 705 80 705 Q89 705 89 718" fill="none" stroke="#FBF8F2" stroke-width="5" stroke-linecap="round"/>
  <rect x="60" y="735" width="56" height="7" fill="#C4622D"/>
  <rect x="71" y="729" width="9" height="15" rx="3" fill="#C4622D"/>
  <circle cx="82" cy="738.5" r="3.5" fill="#FBF8F2"/>
  <rect x="66" y="758" width="7" height="5" rx="2" fill="#D4794A"/>
  <rect x="99" y="758" width="7" height="5" rx="2" fill="#D4794A"/>
</g>

<!-- ═══════════════════════════════════════════════ -->
<!--  BRAND COLOR PALETTE — reference swatch        -->
<!-- ═══════════════════════════════════════════════ -->
<g id="brand-colors">
  <!-- Terracotta — primary brand color -->
  <rect x="40"  y="852" width="76" height="30" rx="8" fill="#C4622D"/>
  <!-- Bark — primary text -->
  <rect x="130" y="852" width="76" height="30" rx="8" fill="#2C1F14"/>
  <!-- Linen — background -->
  <rect x="220" y="852" width="76" height="30" rx="8" fill="#FBF8F2" stroke="#E8D5B8" stroke-width="1"/>
  <!-- Sand — borders, dividers -->
  <rect x="310" y="852" width="76" height="30" rx="8" fill="#E8D5B8"/>
  <!-- Moss — safety, success -->
  <rect x="400" y="852" width="76" height="30" rx="8" fill="#3A7038"/>
  <!-- Sky — information, nomad -->
  <rect x="490" y="852" width="76" height="30" rx="8" fill="#2A6898"/>
  <!-- Gold — premium, warnings -->
  <rect x="580" y="852" width="60" height="30" rx="8" fill="#B88828"/>
</g>

</svg>
